<svg width="160" height="70" viewBox="0 0 160 70" fill="none" xmlns="http://www.w3.org/2000/svg" role="img" aria-label="AI 시그널톡 로고">
  <title>AI Signal Talk Logo</title>
  <defs>
    <linearGradient id="barGradient" x1="45" y1="50" x2="45" y2="20" gradientUnits="userSpaceOnUse">
      <stop offset="0" stop-color="#00C853"/>
      <stop offset="1" stop-color="#00FF57"/>
    </linearGradient>
    <linearGradient id="arrowGradient" x1="43" y1="47" x2="112" y2="18" gradientUnits="userSpaceOnUse">
      <stop offset="0" stop-color="#00E64D"/>
      <stop offset="0.52" stop-color="#00FF57"/>
      <stop offset="1" stop-color="#8CFF7A"/>
    </linearGradient>
    <filter id="neonGlow" x="20" y="0" width="125" height="70" filterUnits="userSpaceOnUse">
      <feGaussianBlur stdDeviation="2.4" result="blur"/>
      <feColorMatrix in="blur" type="matrix" values="0 0 0 0 0  0 0 0 0 1  0 0 0 0 0.35  0 0 0 0.75 0" result="glow"/>
      <feMerge>
        <feMergeNode in="glow"/>
        <feMergeNode in="SourceGraphic"/>
      </feMerge>
    </filter>
  </defs>

  <!--
    Editable variables:
    - Main color: #00FF57
    - Dark accent: #00C853
    - Width/height: set on <svg> or CSS
    - Remove glow: delete filter="url(#neonGlow)"
  -->

  <g filter="url(#neonGlow)">
    <!-- 상승 캔들/바 3개 -->
    <rect x="39" y="41" width="13" height="15" rx="2" fill="url(#barGradient)"/>
    <rect x="60" y="32" width="13" height="24" rx="2" fill="url(#barGradient)" opacity="0.92"/>
    <rect x="81" y="23" width="13" height="33" rx="2" fill="url(#barGradient)" opacity="0.86"/>

    <!-- 상승 곡선 화살표 -->
    <path d="M35 50C51 43 66 34 82 24C91 18 98 13 111 8" stroke="url(#arrowGradient)" stroke-width="7" stroke-linecap="round"/>
    <path d="M104 7L121 2L116 20L111 12L104 7Z" fill="url(#arrowGradient)"/>

    <!-- 하이라이트 라인 -->
    <path d="M38 48C54 41 68 32 82 23C91 17 99 12 112 7" stroke="#B6FF9A" stroke-width="1.6" stroke-linecap="round" opacity="0.85"/>
  </g>
</svg>
